<svg width="32" height="32" viewBox="0 0 32 32" fill="none" xmlns="http://www.w3.org/2000/svg">
<circle cx="16" cy="16" r="16" fill="white"/>
<path d="M11.8335 23.5C11.3752 23.5 10.9828 23.3368 10.6564 23.0104C10.33 22.684 10.1668 22.2917 10.1668 21.8333V11H9.3335V9.33333H13.5002V8.5H18.5002V9.33333H22.6668V11H21.8335V21.8333C21.8335 22.2917 21.6703 22.684 21.3439 23.0104C21.0175 23.3368 20.6252 23.5 20.1668 23.5H11.8335ZM20.1668 11H11.8335V21.8333H20.1668V11ZM13.5002 20.1667H15.1668V12.6667H13.5002V20.1667ZM16.8335 20.1667H18.5002V12.6667H16.8335V20.1667Z" fill="#1D1B20"/>
</svg>
