<svg width="40" height="40" viewBox="0 0 40 40" fill="none" xmlns="http://www.w3.org/2000/svg">
<circle cx="20" cy="20" r="20" fill="white"/>
<path d="M12.7083 27.2917H14.1927L24.375 17.1094L22.8906 15.625L12.7083 25.8073V27.2917ZM10.625 29.375V24.9479L24.375 11.224C24.5833 11.033 24.8134 10.8854 25.0651 10.7812C25.3168 10.6771 25.5816 10.625 25.8594 10.625C26.1372 10.625 26.4062 10.6771 26.6667 10.7812C26.9271 10.8854 27.1528 11.0417 27.3438 11.25L28.776 12.7083C28.9844 12.8993 29.1363 13.125 29.2318 13.3854C29.3273 13.6458 29.375 13.9062 29.375 14.1667C29.375 14.4444 29.3273 14.7092 29.2318 14.9609C29.1363 15.2127 28.9844 15.4427 28.776 15.651L15.0521 29.375H10.625ZM23.6198 16.3802L22.8906 15.625L24.375 17.1094L23.6198 16.3802Z" fill="#1D1B20"/>
</svg>
