<svg width="40" height="40" viewBox="0 0 40 40" fill="none" xmlns="http://www.w3.org/2000/svg">
<circle cx="20" cy="20" r="20" fill="white"/>
<path d="M14.7917 29.375C14.2188 29.375 13.7284 29.171 13.3204 28.763C12.9124 28.355 12.7084 27.8646 12.7084 27.2917V13.75H11.6667V11.6667H16.8751V10.625H23.1251V11.6667H28.3334V13.75H27.2917V27.2917C27.2917 27.8646 27.0878 28.355 26.6798 28.763C26.2718 29.171 25.7813 29.375 25.2084 29.375H14.7917ZM25.2084 13.75H14.7917V27.2917H25.2084V13.75ZM16.8751 25.2083H18.9584V15.8333H16.8751V25.2083ZM21.0417 25.2083H23.1251V15.8333H21.0417V25.2083Z" fill="#1D1B20"/>
</svg>
